<svg xmlns="http://www.w3.org/2000/svg" viewBox="0 0 10 10"><path d="M3.805 7.2h.503a.63.63 0 0 0 .629.629.63.63 0 0 0 .629-.629h.503c0 .625-.507 1.132-1.132 1.132S3.805 7.826 3.805 7.2zm4.403-.63v.126a.5.5 0 0 1-.503.503h-5.535c-.278 0-.503-.225-.503-.503v-.126a.88.88 0 0 1 .755-.872v-1.518c0-1.4 1.126-2.516 2.516-2.516s2.516 1.126 2.516 2.516V5.7a.88.88 0 0 1 .755.872zm-.503 0c0-.21-.17-.377-.378-.377s-.376-.17-.376-.376V4.182c0-1.11-.9-2.013-2.013-2.013s-2.013.9-2.013 2.013V5.82c0 .208-.17.376-.376.376s-.378.17-.378.377v.126h5.535v-.126z" fill="#fff" fill-rule="nonzero" stroke-width="0"></path></svg>